<?xml version="1.0" encoding="UTF-8"?>
<svg id="Layer_1" data-name="Layer 1" xmlns="http://www.w3.org/2000/svg" version="1.1" viewBox="0 0 300 300">
  <defs>
    <style>
      .cls-1 {
        fill: #ebac49;
      }

      .cls-1, .cls-2 {
        stroke-width: 0px;
      }

      .cls-2 {
        fill: #fff477;
      }
    </style>
  </defs>
  <g>
    <path class="cls-1" d="M189.7,152.7c-10.1,1.5-22.4,4.8-39,5.1-16.6.3-36.7-2.3-46.4-4.3-2.4-.5-4.8,1-4.8,3,.8,43,35.9,55.8,51.2,56.4,23.8,1,53.4-62.3,39-60.2ZM162.4,186.7c-2.5,2.9-5.4,4.4-8.7,4.4-3.4,0-6.2-1.7-8-3-2.8,2.6-5.8,3.8-8.8,3.5s-.1,0-.2,0c-5.5-.6-8.6-5.9-8.7-6.1-.5-1,0-2.1,1.1-2.5,1.1-.4,2.5,0,3,1,.6,1,2.6,3.6,5,3.9,2.4.2,4.9-1.9,6.5-3.8.4-.5,1.1-.7,1.8-.7.7,0,1.4.3,1.8.8.8.9,3.5,3.2,6.3,3.2,1.8,0,3.5-1,5.1-2.9.7-.8,2.1-1,3.2-.4,1,.6,1.3,1.8.6,2.6ZM168.3,172.2c-2.8,3.2-6.9,4.4-11.4,3.6-1.4-.3-2.7-.7-3.7-1.1-2.8,2.2-5.6,3.1-8.4,2.6-2.2-.3-3.8-1.4-4.9-2.4-2.9,2-5.7,2.9-8.5,2.7s-.6,0-.9-.1c-5.7-1-8.4-6.1-8.7-6.7-.6-1.1,0-2.4,1.5-2.9,1.4-.4,2.9.2,3.5,1.3.5,1,2.2,3.5,4.6,3.9,2.4.4,5.1-1.5,7-3.2.6-.5,1.5-.8,2.4-.7.9.1,1.7.7,2,1.4.3.5,1.4,2.1,2.8,2.3,1.3.2,3.1-.7,5-2.6.9-.8,2.5-1,3.6-.3,0,0,1.7,1,3.8,1.3,2.5.4,4.3-.2,5.9-2,.9-1,2.5-1.1,3.7-.4,1.2.7,1.5,2.1.6,3.1Z"/>
    <path class="cls-1" d="M130.7,198.2c.5-1,1.6-1.4,2.2-.9,2.7,2.1,8.5,5.8,13.9,7.7,5.4,1.9,10.1,1.8,13.7,2.3,5.1.7-19.6,27.7-26.9,24.3-4.8-2.2-13-12.6-2.9-33.5Z"/>
    <path class="cls-1" d="M141.1,216.1c-.7-.7-.7-1.9,0-2.3,2.7-1.6,7.9-5.3,11.4-9.3,3.4-4-2.2-4,7-8.3s15.8,23,12,29.7-15.1,5.8-30.5-9.8Z"/>
  </g>
  <path class="cls-2" d="M190,118.5c-3,6.2-8.4,6.9-23.1,5.4-37.3-3.6-53.8-10.1-57.9-18.7-5.3-11,9.9-24.8,26.9-41.3.6-.6,1.3-.9,2-.4,0,0,14,9.9,27.6,21.6,14.2,12.2,27.9,26.5,24.5,33.5Z"/>
  <path class="cls-2" d="M107.7,115.1c-2.2-1.1-6.1,1.1-7.3,3.2-2.1,3.7-6.5,16.9-1.9,23.3,12.7,17.5,98,12.8,94.6-5.3s-16.5-3.5-35-5.6-25.7-4.3-33-8l-17.5-7.5Z"/>
</svg>