<?xml version="1.0" encoding="UTF-8"?>
<svg id="Layer_1" data-name="Layer 1" xmlns="http://www.w3.org/2000/svg" xmlns:xlink="http://www.w3.org/1999/xlink" version="1.1" viewBox="0 0 300 300">
  <defs>
    <style>
      .cls-1 {
        fill: #231f20;
        stroke-width: 0px;
      }
    </style>
  </defs>
  <g>
    <path class="cls-1" d="M177.3,125.3c4.9-15.3,17.8-30.8,26-28.6,3.5,1,5.4,5.5,9,14.7,6.1,15.2,3.4,18.3,8.3,29.1,5.8,12.7,12.7,15.3,11.2,21.8-1.5,6.7-10.2,10-13.2,11.1-10.9,4.1-26.7,2.8-36.6-7.8-13.2-13.9-6.7-34.3-4.7-40.4h0s0,0,0,0Z"/>
    <path class="cls-1" d="M168.8,118.1c-11-3.8-23-5.1-40.6-2.5-21.7,2.3-40.5,12.8-50.6,29.4-6.7,11-10.1,29.4-1.9,44.3,9,16.4,29.6,16.2,46.7,16.3,13.6,0,39.8-4.8,60.1-23.5,10.9-10,18.5-34.9,9.6-47.6-5.8-8.1-16.4-14.6-23.3-16.4h0Z"/>
  </g>
  <image width="972" height="569" transform="translate(79 130.9) rotate(-12.4) scale(.1)" xlink:href="../../../../../../Downloads/IMG_0744.png"/>
</svg>