<?xml version="1.0" encoding="UTF-8"?>
<svg id="Layer_1" data-name="Layer 1" xmlns="http://www.w3.org/2000/svg" version="1.1" viewBox="0 0 300 300">
  <defs>
    <style>
      .cls-1 {
        fill: #ebac49;
      }

      .cls-1, .cls-2 {
        stroke-width: 0px;
      }

      .cls-2 {
        fill: #f49c8e;
      }
    </style>
  </defs>
  <g>
    <path class="cls-1" d="M190.5,147.5c-9.9,2.6-21.8,7.1-38.3,9.1s-36.7,1.5-46.6.5c-2.4-.2-4.7,1.5-4.5,3.5,5.2,42.7,41.5,51.7,56.8,50.8,23.8-1.4,46.7-67.5,32.6-63.9ZM166.9,184.1c-2.2,3.2-4.9,4.9-8.2,5.3-3.4.3-6.4-1-8.3-2.2-2.6,2.9-5.4,4.3-8.4,4.4s-.1,0-.2,0c-5.6,0-9.1-4.9-9.3-5.2-.6-.9-.3-2,.8-2.6,1.1-.5,2.5-.2,3.1.7.7.9,2.9,3.3,5.4,3.3s4.7-2.4,6.1-4.4c.4-.5,1-.9,1.7-.9s1.4.2,1.9.6c.9.8,3.8,2.8,6.6,2.5,1.7-.2,3.4-1.3,4.8-3.4.6-.9,2-1.2,3.1-.7s1.5,1.6.8,2.6h0ZM171.2,169c-2.5,3.4-6.4,5.1-11,4.8-1.5-.1-2.8-.4-3.8-.7-2.6,2.4-5.3,3.6-8.1,3.5-2.2-.1-3.9-1-5.1-1.9-2.7,2.3-5.4,3.5-8.2,3.5s-.6,0-.9,0c-5.8-.4-9-5.2-9.3-5.8-.7-1.1-.2-2.4,1.2-3,1.3-.6,2.9-.2,3.6.9.6.9,2.6,3.3,5,3.4,2.4.1,4.9-2,6.6-3.9.5-.6,1.4-.9,2.3-.9s1.7.5,2.2,1.1c.3.5,1.6,1.9,3.1,2,1.3,0,3-1,4.8-3.1.8-.9,2.4-1.2,3.5-.6,0,0,1.8.8,3.9.9,2.5.1,4.3-.7,5.7-2.6.8-1.1,2.4-1.4,3.7-.8,1.3.6,1.7,2,.9,3v.2Z"/>
    <path class="cls-1" d="M136.5,198.8c.4-1,1.5-1.5,2.1-1.1,2.9,1.8,9,4.9,14.6,6.2s10.3.7,13.9.9c5.2.2-16.6,29.6-24.3,27-5-1.7-14.2-11.2-6.4-33h0Z"/>
    <path class="cls-1" d="M148.7,215.5c-.8-.7-.9-1.8-.2-2.3,2.6-1.8,7.3-6.1,10.4-10.4,3-4.4-2.6-3.7,6.1-9,4.1-2.5,18.1,21.2,15.1,28.3-1.2,2.7-14.4,7.4-31.3-6.6h-.1Z"/>
  </g>
  <path class="cls-2" d="M187.2,113.4c-2.4,6.5-7.7,7.7-22.4,7.8-37.5.3-54.5-4.5-59.5-12.7-6.4-10.4,7.2-25.7,22.5-43.8.5-.6,1.2-1,2-.7,0,0,15,8.4,29.7,18.6,15.4,10.7,30.5,23.4,27.9,30.8h-.2Z"/>
  <path class="cls-2" d="M105.1,118.5c-2.3-.9-5.9,1.7-6.9,3.9-1.7,3.9-4.8,17.4.5,23.3,14.4,16.1,98.8,2.6,93.6-15.1s-16.8-1.8-35.4-1.9c-9.5,0-26.1-1.7-33.7-4.6l-18.2-5.7h0Z"/>
</svg>