<?xml version="1.0" encoding="UTF-8"?>
<svg id="Layer_1" xmlns="http://www.w3.org/2000/svg" version="1.1" viewBox="0 0 300 300">
  <!-- Generator: Adobe Illustrator 29.6.0, SVG Export Plug-In . SVG Version: 2.1.1 Build 207)  -->
  <defs>
    <style>
      .st0 {
        fill: #ebac49;
      }

      .st1 {
        fill: #fff;
      }

      .st2 {
        fill: #d06b2d;
      }
    </style>
  </defs>
  <path class="st1" d="M132.8,54.9c-.9-.3-2.2-.3-2.8.3-17.4,14.3-32.1,33.3-32.7,49.8,0,6.2-4.7,13.7-5.9,20.5-2.2,11.2-1.2,20.9,3.1,30.2,4.4,9.3,1.2,17.7,8.4,32.1s19.9,25.2,27.1,27.7-1.2,1.9,3.1,15.9c4.4,14,7.8,13.4,13.4,13.7,3.1,0,6.8-1.6,10.3-3.7,3.4-2.2,5.9-5.6,7.5-6.2s6.2,1.2,11.8,1.6c5.6.3,11.5-.3,13.7-3.1,5.6-7.2.3-20.5-1.6-24.6-.3-.6-.6-1.9,0-2.5,5.6-4.7,20.2-25.5,21.5-53.2,0-4-1.9-8.7-1.9-12.5s5-10.3-4.7-22.7c-.6-.9.3-4.7-.6-9s-4.7-9-5.6-10.3c-17.7-21.8-52.9-38-63.5-43.9h-.6,0Z"/>
  <g id="Layer_11">
    <g>
      <path class="st0" d="M195.2,149.6c-9.9,2.6-21.8,7.1-38.3,9.1s-36.7,1.5-46.6.5c-2.4-.2-4.7,1.5-4.5,3.5,5.2,42.7,41.5,51.7,56.8,50.8,23.8-1.4,46.7-67.5,32.6-63.9h0ZM171.6,186.2c-2.2,3.2-4.9,4.9-8.2,5.3-3.4.3-6.4-1-8.3-2.2-2.6,2.9-5.4,4.3-8.4,4.4s-.1,0-.2,0c-5.6,0-9.1-4.9-9.3-5.2-.6-.9-.3-2,.8-2.6,1.1-.5,2.5-.2,3.1.7.7.9,2.9,3.3,5.4,3.3s4.7-2.4,6.1-4.4c.4-.5,1-.9,1.7-.9s1.4.2,1.9.6c.9.8,3.8,2.8,6.6,2.5,1.7-.2,3.4-1.3,4.8-3.4.6-.9,2-1.2,3.1-.7s1.5,1.6.8,2.6h0ZM175.9,171.1c-2.5,3.4-6.4,5.1-11,4.8-1.5-.1-2.8-.4-3.8-.7-2.6,2.4-5.3,3.6-8.1,3.5-2.2-.1-3.9-1-5.1-1.9-2.7,2.3-5.4,3.5-8.2,3.5s-.6,0-.9,0c-5.8-.4-9-5.2-9.3-5.8-.7-1.1-.2-2.4,1.2-3,1.3-.6,2.9-.2,3.6.9.6.9,2.6,3.3,5,3.4,2.4.1,4.9-2,6.6-3.9.5-.6,1.4-.9,2.3-.9s1.7.5,2.2,1.1c.3.5,1.6,1.9,3.1,2,1.3,0,3-1,4.8-3.1.8-.9,2.4-1.2,3.5-.6,0,0,1.8.8,3.9.9,2.5.1,4.3-.7,5.7-2.6.8-1.1,2.4-1.4,3.7-.8,1.3.6,1.7,2,.9,3v.2h0Z"/>
      <path class="st0" d="M141.2,200.9c.4-1,1.5-1.5,2.1-1.1,2.9,1.8,9,4.9,14.6,6.2s10.3.7,13.9.9c5.2.2-16.6,29.6-24.3,27-5-1.7-14.2-11.2-6.4-33h0Z"/>
      <path class="st0" d="M153.4,217.6c-.8-.7-.9-1.8-.2-2.3,2.6-1.8,7.3-6.1,10.4-10.4,3-4.4-2.6-3.7,6.1-9,4.1-2.5,18.1,21.2,15.1,28.3-1.2,2.7-14.4,7.4-31.3-6.6h-.1Z"/>
    </g>
    <path class="st2" d="M191.9,115.5c-2.4,6.5-7.7,7.7-22.4,7.8-37.5.3-54.5-4.5-59.5-12.7-6.4-10.4,7.2-25.7,22.5-43.8.5-.6,1.2-1,2-.7,0,0,15,8.4,29.7,18.6,15.4,10.7,30.5,23.4,27.9,30.8h-.2Z"/>
    <path class="st2" d="M109.8,120.6c-2.3-.9-5.9,1.7-6.9,3.9-1.7,3.9-4.8,17.4.5,23.3,14.4,16.1,98.8,2.6,93.6-15.1s-16.8-1.8-35.4-1.9c-9.5,0-26.1-1.7-33.7-4.6l-18.2-5.7h0Z"/>
  </g>
</svg>