<?xml version="1.0" encoding="UTF-8"?>
<svg id="Layer_1" data-name="Layer 1" xmlns="http://www.w3.org/2000/svg" version="1.1" viewBox="0 0 300 300">
  <defs>
    <style>
      .cls-1 {
        fill: #f5f6d3;
      }

      .cls-1, .cls-2, .cls-3 {
        stroke-width: 0px;
      }

      .cls-2 {
        fill: #92bb6e;
      }

      .cls-3 {
        fill: #f9a31a;
      }
    </style>
  </defs>
  <path class="cls-2" d="M96.1,96.8l8.9,75.1c1.8,20.5,15.2,36.4,31,36.4l24.5-.2c17.5,0,32.2-13.4,33.8-30.8l7.5-81.6c.3-3.2-2.3-6-5.6-5.9l-96.4,2.8c-2.3,0-4,2.1-3.7,4.3Z"/>
  <path class="cls-1" d="M103.2,156.8l1.8,15.1c1.8,20.5,15.2,36.4,31,36.4l24.5-.2c17.5,0,32.2-13.4,33.8-30.8l7.1-77.2-98.3,56.7Z"/>
  <path class="cls-3" d="M115,197.5c5.6,6.8,13,10.9,21.1,10.9l24.5-.2c17.5,0,32.2-13.4,33.8-30.8l2.5-27.2-81.9,47.3Z"/>
</svg>