<?xml version="1.0" encoding="UTF-8"?>
<svg id="Layer_1" data-name="Layer 1" xmlns="http://www.w3.org/2000/svg" version="1.1" viewBox="0 0 300 300">
  <defs>
    <style>
      .cls-1 {
        fill: none;
        stroke: #fff;
        stroke-linecap: round;
        stroke-linejoin: round;
        stroke-width: 4.89px;
      }

      .cls-2 {
        fill: #603917;
        stroke-width: 0px;
      }
    </style>
  </defs>
  <g>
    <path class="cls-2" d="M177.33,125.35c4.87-15.26,17.84-30.81,26.04-28.59,3.54.96,5.38,5.54,9.03,14.69,6.07,15.18,3.35,18.3,8.3,29.11,5.82,12.69,12.7,15.29,11.24,21.81-1.52,6.74-10.24,9.99-13.24,11.11-10.9,4.06-26.71,2.75-36.64-7.76-13.18-13.95-6.68-34.26-4.74-40.39v.02Z"/>
    <path class="cls-2" d="M168.79,118.09c-10.99-3.78-23.03-5.09-40.56-2.5-21.65,2.3-40.49,12.76-50.61,29.4-6.68,10.98-10.11,29.4-1.94,44.26,9.03,16.43,29.64,16.21,46.68,16.26,13.62.04,39.81-4.77,60.12-23.48,10.88-10.02,18.53-34.92,9.62-47.55-5.75-8.14-16.4-14.56-23.32-16.4h0Z"/>
  </g>
  <path class="cls-1" d="M123.34,189.45s12.23-11.42-4.59-18.13c0,0,7.71-11.31-5.64-16.31,0,0,5.22-12.3-4.86-15.04"/>
  <path class="cls-1" d="M140.91,175.97s8.57-12.58-6.27-18.14c0,0,5.81-13.68-5.41-16.73"/>
</svg>